<?xml version="1.0" encoding="UTF-8" standalone="no"?>
<svg
   xmlns:dc="http://purl.org/dc/elements/1.1/"
   xmlns:cc="http://creativecommons.org/ns#"
   xmlns:rdf="http://www.w3.org/1999/02/22-rdf-syntax-ns#"
   xmlns:svg="http://www.w3.org/2000/svg"
   xmlns="http://www.w3.org/2000/svg"
   xmlns:sodipodi="http://sodipodi.sourceforge.net/DTD/sodipodi-0.dtd"
   xmlns:inkscape="http://www.inkscape.org/namespaces/inkscape"
   width="497.78329pt"
   height="497.69pt"
   version="1.1"
   viewBox="0 0 497.78329 497.69"
   id="svg980"
   sodipodi:docname="noun-magnifier-5141395.svg"
   inkscape:version="1.0.1 (c497b03c, 2020-09-10)">
  <metadata
     id="metadata984">
    <rdf:RDF>
      <cc:Work
         rdf:about="">
        <dc:format>image/svg+xml</dc:format>
        <dc:type
           rdf:resource="http://purl.org/dc/dcmitype/StillImage" />
      </cc:Work>
    </rdf:RDF>
  </metadata>
  <sodipodi:namedview
     pagecolor="#ffffff"
     bordercolor="#666666"
     borderopacity="1"
     objecttolerance="10"
     gridtolerance="10"
     guidetolerance="10"
     inkscape:pageopacity="0"
     inkscape:pageshadow="2"
     inkscape:window-width="1549"
     inkscape:window-height="947"
     id="namedview982"
     showgrid="false"
     inkscape:zoom="0.71571429"
     inkscape:cx="331.85334"
     inkscape:cy="425.2"
     inkscape:window-x="536"
     inkscape:window-y="79"
     inkscape:window-maximized="0"
     inkscape:current-layer="svg980"
     inkscape:document-rotation="0"
     inkscape:lockguides="false" />
  <defs
     id="defs896" />
  <g
     id="g978"
     transform="translate(-101.11,-31.1)">
    <path
       d="m 542.18,528.79 c -2.6719,0 -5.4922,-1.0391 -7.5703,-3.1172 l -118.17,-118.19 c -2.0781,-2.0781 -3.1172,-4.75 -3.1172,-7.7188 0,-2.8203 1.1875,-5.6406 3.2656,-7.5742 l 46.766,-45.281 c 4.1562,-4.0117 10.836,-4.0117 14.992,0 l 117.43,117.44 c 1.9297,2.0781 3.1172,4.75 3.1172,7.5703 0,2.8242 -1.1875,5.4961 -3.1172,7.5742 l -46.023,46.027 c -2.0781,2.0781 -4.8984,3.1172 -7.5703,3.1172 z M 439.3,400.06 l 102.88,102.89 30.879,-30.883 -102.43,-102.45 -31.473,30.438 z"
       id="path898" />
    <path
       d="m 307.61,444.16 c -113.86,0 -206.5,-92.648 -206.5,-206.53 0,-113.88 92.637,-206.53 206.5,-206.53 113.87,0 206.5,92.648 206.5,206.53 0,113.88 -92.633,206.53 -206.5,206.53 z m 0,-391.52 c -101.99,0 -185.12,82.996 -185.12,185.14 0,102.15 82.984,185.15 185.12,185.15 102.136,0 185.12,-82.996 185.12,-185.15 0,-102.15 -82.984,-185.14 -185.12,-185.14 z"
       id="path900" />
    <path
       d="m 460.23,254.12 c -5.9375,0 -10.688,-4.7539 -10.688,-10.691 0,-81.66 -66.508,-148.18 -148.16,-148.18 -5.9375,0 -10.688,-4.75 -10.688,-10.691 0,-5.9375 4.75,-10.691 10.688,-10.691 93.527,0 169.54,76.02 169.54,169.56 0,5.9375 -4.75,10.691 -10.688,10.691 z"
       id="path902" />
  </g>
</svg>
